first trial
nRows=32
nColumns=38

# SIMM Motion File Header:
name Sujet_06_velo100.mvnx
datacolumns 38
datarows 32
otherdata 1
range 3.8830 4.3990
endheader
time pelvis_tilt  pelvis_list  pelvis_rotation  pelvis_tx  pelvis_ty  pelvis_tz  hip_flexion_r  hip_adduction_r  hip_rotation_r  knee_angle_r  ankle_angle_r  subtalar_angle_r  mtp_angle_r  hip_flexion_l  hip_adduction_l  hip_rotation_l  knee_angle_l  ankle_angle_l  subtalar_angle_l  mtp_angle_l  lumbar_extension  lumbar_bending  lumbar_rotation  arm_flex_r  arm_add_r  arm_rot_r  elbow_flex_r  pro_sup_r  wrist_flex_r  wrist_dev_r  arm_flex_l  arm_add_l  arm_rot_l  elbow_flex_l  pro_sup_l  wrist_flex_l  wrist_dev_l
3.8830	-9.5954	1.9029	-9.1881	0.0000	1.2500	-0.0000	56.8792	3.4364	-1.3294	93.3837	-9.8721	-4.5278	-0.0000	64.2976	-1.4208	-0.5176	64.7178	4.8019	-7.2398	-0.0000	-14.8485	-1.6061	-1.5416	83.7977	7.2242	18.7487	16.1518	113.9685	-10.0929	-1.7000	91.8132	-6.1817	20.9561	20.0595	126.7984	-23.0164	-4.8766	
3.8990	-9.6003	1.8461	-9.6475	0.0000	1.2500	-0.0000	60.0991	4.2028	-0.9527	98.7128	-9.2234	-4.6930	0.0000	59.6663	-1.2279	-2.0897	58.3488	4.0603	-7.1010	0.0000	-14.8481	-1.5622	-1.4477	83.8539	7.2931	18.9533	16.3272	114.1265	-10.1396	-1.6389	91.6802	-6.4332	21.2655	20.0948	126.2564	-23.1376	-4.9874	
3.9160	-9.6298	1.8412	-10.2346	0.0000	1.2500	-0.0000	63.4122	5.1325	-0.6316	103.5490	-7.8356	-4.4347	-0.0000	55.0562	-1.3719	-3.3642	52.2639	2.4135	-6.4653	-0.0000	-14.8498	-1.5744	-1.3474	83.9976	7.4916	19.1847	16.4072	114.2767	-10.1330	-1.5074	91.3219	-6.5865	21.8169	20.0859	125.5252	-23.1837	-5.1410	
3.9330	-9.6750	1.8562	-10.9103	0.0000	1.2500	-0.0000	66.7970	6.1728	-0.4346	107.8642	-5.9458	-4.0161	-0.0000	50.4605	-1.7147	-4.5278	46.5693	0.1659	-5.5113	0.0000	-14.8531	-1.6223	-1.2360	84.2021	7.7581	19.4032	16.4402	114.4607	-10.0994	-1.3298	90.8308	-6.7023	22.5034	20.0540	124.6812	-23.2041	-5.3260	
3.9490	-9.7061	1.8132	-11.4883	0.0000	1.2500	-0.0000	69.9723	7.1781	-0.2867	111.1786	-3.7698	-3.9456	-0.0000	46.4932	-2.0563	-5.5828	42.1760	-2.2191	-4.4772	-0.0000	-14.8733	-1.6562	-1.1290	84.4435	7.9488	19.4920	16.4536	114.7397	-10.0714	-1.1547	90.4203	-6.8300	23.0800	20.0359	123.9485	-23.2580	-5.5038	
3.9660	-9.7163	1.6583	-11.8937	0.0000	1.2500	-0.0000	72.9277	8.1004	-0.0548	113.3296	-1.1469	-4.4615	-0.0000	43.3044	-2.4335	-6.4988	39.3074	-4.7993	-3.3050	-0.0000	-14.9128	-1.6523	-1.0354	84.7161	8.0230	19.4142	16.4383	115.1581	-10.0537	-1.0104	90.1831	-7.0135	23.4232	20.0429	123.4613	-23.3842	-5.6728	
3.9830	-9.7114	1.4459	-12.2016	0.0000	1.2500	-0.0000	75.6785	8.9653	0.1659	114.4770	1.7522	-5.2687	0.0000	40.7400	-2.9083	-7.2862	37.7435	-7.5465	-1.9970	0.0000	-14.9693	-1.6347	-0.9462	85.0277	8.0206	19.2066	16.3978	115.6708	-10.0418	-0.8695	90.0256	-7.2091	23.6561	20.0725	123.0876	-23.5441	-5.8347	
3.9990	-9.6792	1.2611	-12.4504	0.0000	1.2500	-0.0000	77.9814	9.7174	0.1509	114.6187	4.2131	-6.0525	0.0000	38.9697	-3.3551	-7.9476	37.7178	-9.8308	-0.9068	0.0000	-15.0506	-1.6260	-0.8494	85.3771	7.9176	18.8640	16.3783	116.2042	-10.0541	-0.6963	89.8826	-7.3352	23.9030	20.1463	122.6548	-23.6811	-5.9567	
4.0160	-9.6015	1.1222	-12.6281	0.0000	1.2500	-0.0000	79.8375	10.3376	-0.2208	113.7039	6.0069	-6.7799	-0.0000	38.1350	-3.7226	-8.5745	39.5404	-11.3401	-0.2459	0.0000	-15.1776	-1.6253	-0.7299	85.7850	7.6297	18.3582	16.4347	116.7335	-10.1122	-0.4576	89.7345	-7.3258	24.2699	20.2949	122.0148	-23.7730	-6.0145	
4.0330	-9.4975	1.0109	-12.7468	0.0000	1.2500	-0.0000	81.2442	10.8239	-0.7869	111.7842	7.3691	-7.4585	-0.0000	38.0970	-4.1039	-9.0405	42.8999	-12.3499	0.1571	-0.0000	-15.3292	-1.6334	-0.6029	86.2294	7.2407	17.7199	16.5079	117.2823	-10.1946	-0.1856	89.6005	-7.2485	24.6516	20.4804	121.3163	-23.8415	-6.0326	
4.0490	-9.4129	0.9588	-12.8807	0.0000	1.2500	-0.0000	81.9481	11.1569	-1.3396	109.0067	8.2848	-7.9074	-0.0000	38.6072	-4.5741	-9.0136	47.0905	-13.0868	0.4929	0.0000	-15.4506	-1.6754	-0.5027	86.6452	6.9773	17.0306	16.4777	117.8508	-10.2555	0.0573	89.4748	-7.2197	24.8548	20.6263	120.8299	-23.8952	-6.0501	
4.0660	-9.3665	0.9897	-13.1071	0.0000	1.2500	-0.0000	81.8656	11.3838	-1.7828	105.2954	8.6891	-8.0247	0.0000	39.6450	-5.1844	-8.2083	52.0764	-13.5980	0.8345	0.0000	-15.5205	-1.7754	-0.4378	87.0488	6.9250	16.1596	16.2540	118.5962	-10.2681	0.2646	89.3466	-7.3006	24.7043	20.6985	120.7377	-23.9335	-6.0842	
4.0830	-9.3399	1.0794	-13.3489	0.0000	1.2500	-0.0000	81.0709	11.4769	-2.1914	100.7040	8.6450	-7.9756	0.0000	41.2465	-5.8529	-6.8881	57.8644	-13.8327	1.1050	-0.0000	-15.5599	-1.9089	-0.4000	87.4241	6.9939	15.2346	15.9288	119.3659	-10.2595	0.4423	89.2267	-7.4284	24.3749	20.7388	120.8570	-23.9571	-6.1172	
4.0990	-9.3216	1.1856	-13.4491	0.0000	1.2500	-0.0000	79.5466	11.3179	-2.6229	95.5797	8.3271	-7.9881	0.0000	43.2448	-6.4507	-5.5562	63.8424	-13.8776	1.2914	0.0000	-15.5783	-2.0284	-0.3978	87.6608	7.1509	14.7233	15.6708	119.6931	-10.2627	0.5471	89.1428	-7.5307	24.1982	20.7901	120.9101	-23.9762	-6.1363	
4.1160	-9.3161	1.3168	-13.3365	0.0000	1.2500	-0.0000	77.1807	10.8380	-3.1743	89.8915	7.8524	-8.2335	0.0000	45.6532	-6.9263	-4.3385	69.9857	-13.7892	1.3497	0.0000	-15.5725	-2.1245	-0.4361	87.6861	7.4143	14.9528	15.6107	119.2680	-10.3004	0.5604	89.0851	-7.6103	24.3677	20.9018	120.7148	-23.9892	-6.1314	
4.1330	-9.3178	1.4644	-13.0821	0.0000	1.2500	-0.0000	74.0932	10.1325	-3.8067	83.6575	7.1067	-8.5331	-0.0000	48.4611	-7.2992	-3.1220	76.3470	-13.5072	1.3427	0.0000	-15.5465	-2.2066	-0.5098	87.5726	7.7696	15.5978	15.6173	118.3978	-10.3487	0.5014	89.0643	-7.6642	24.6902	21.0239	120.4534	-23.9976	-6.1125	
4.1490	-9.3009	1.5600	-12.7429	0.0000	1.2500	-0.0000	70.6164	9.3249	-4.3786	77.3282	5.9153	-8.5771	0.0000	51.4529	-7.5813	-2.0616	82.4420	-12.9458	1.4134	-0.0000	-15.5203	-2.2550	-0.6126	87.4315	8.1386	16.1486	15.4745	117.5331	-10.3698	0.3843	89.1382	-7.6113	24.9163	21.0518	120.3955	-24.0178	-6.0967	
4.1660	-9.2541	1.5569	-12.3022	0.0000	1.2500	-0.0000	66.6919	8.4408	-4.9012	70.8450	4.1036	-8.2921	-0.0000	54.6144	-7.8008	-1.3477	88.2112	-12.1555	1.6679	0.0000	-15.5036	-2.2505	-0.7496	87.3021	8.5340	16.4265	15.0573	116.7947	-10.3416	0.2009	89.3443	-7.3935	24.9086	20.9556	120.7080	-24.0654	-6.0851	
4.1830	-9.1899	1.5012	-11.7766	0.0000	1.2500	-0.0000	62.3785	7.4810	-5.4177	64.3057	1.8345	-7.7690	-0.0000	57.9506	-7.9371	-0.8052	93.6857	-11.0887	1.9853	0.0000	-15.4868	-2.2126	-0.9159	87.1495	8.9445	16.6097	14.4859	116.0492	-10.2847	-0.0395	89.6432	-7.0678	24.8030	20.7680	121.2243	-24.1249	-6.0767	
4.1990	-9.1187	1.4629	-11.2724	0.0000	1.2500	-0.0000	58.1821	6.4804	-5.7867	58.4182	-0.5681	-6.9432	-0.0000	61.2725	-7.9295	-0.0352	98.5286	-9.5138	2.1520	-0.0000	-15.4605	-2.1790	-1.0898	86.9767	9.2562	16.7225	13.9286	115.3692	-10.2261	-0.2956	89.9757	-6.7252	24.7603	20.4768	121.7130	-24.1656	-6.0857	
4.2160	-9.0375	1.4449	-10.8066	0.0000	1.2500	-0.0000	54.1139	5.3617	-5.8588	53.2259	-3.1735	-5.5818	-0.0000	64.5595	-7.7054	1.1521	102.7584	-7.0937	2.1829	-0.0000	-15.4119	-2.1530	-1.2719	86.7807	9.4365	16.7455	13.3965	114.7801	-10.1609	-0.5691	90.3298	-6.3609	24.8876	20.0188	122.0713	-24.1769	-6.1284	
4.2330	-8.9488	1.4442	-10.3622	0.0000	1.2500	-0.0000	50.1657	4.1458	-5.7897	48.7116	-5.9366	-3.9004	0.0000	67.8220	-7.2960	2.5388	106.3680	-4.1615	2.0235	0.0000	-15.3539	-2.1319	-1.4617	86.5625	9.5193	16.6982	12.8856	114.2632	-10.0942	-0.8573	90.7147	-5.9773	25.0765	19.4552	122.3999	-24.1694	-6.1881	
4.2490	-8.8685	1.5218	-9.9950	0.0000	1.2500	-0.0000	46.8118	2.9906	-5.8363	45.4628	-8.3366	-2.5027	-0.0000	70.9243	-6.8082	3.9257	108.9936	-1.4982	1.3912	-0.0000	-15.3165	-2.1442	-1.6346	86.3293	9.4903	16.6623	12.5490	113.8356	-10.0706	-1.1153	91.1063	-5.6787	25.1659	18.9585	122.7750	-24.1436	-6.2286	
4.2660	-8.7936	1.7441	-9.7194	0.0000	1.2500	-0.0000	44.1806	1.8743	-6.0533	43.6455	-10.2611	-1.5387	0.0000	73.9847	-6.2941	5.4232	110.5560	0.6076	0.0563	-0.0000	-15.3125	-2.2201	-1.7844	86.0524	9.2952	16.6521	12.5002	113.5319	-10.1326	-1.3441	91.5125	-5.4994	25.0892	18.5698	123.2477	-24.0961	-6.2385	
4.2830	-8.7261	2.0450	-9.5212	0.0000	1.2500	-0.0000	42.1422	0.8038	-6.3328	43.0598	-11.7962	-0.8540	0.0000	76.8848	-5.7240	6.9273	111.1357	2.3786	-1.6355	0.0000	-15.3290	-2.3285	-1.9172	85.7580	8.9875	16.6517	12.6326	113.3232	-10.2401	-1.5453	91.9288	-5.4074	24.9143	18.2443	123.7702	-24.0302	-6.2297	
4.2990	-8.6908	2.2873	-9.4137	0.0000	1.2500	-0.0000	40.7777	-0.0030	-6.6369	43.7259	-12.6939	-0.6073	0.0000	79.1442	-5.1545	7.9495	110.5956	3.8398	-3.1204	0.0000	-15.3576	-2.4050	-2.0261	85.5363	8.7113	16.6982	12.7674	113.1309	-10.3140	-1.6769	92.3145	-5.4093	24.6850	18.0277	124.2697	-23.9570	-6.2018	
4.3160	-8.7124	2.4303	-9.4394	0.0000	1.2500	-0.0000	40.1369	-0.4374	-7.0293	45.7420	-12.7330	-1.0476	0.0000	80.6761	-4.6489	8.3022	108.7998	5.0638	-4.3351	0.0000	-15.4043	-2.4316	-2.1092	85.4353	8.5211	16.8233	12.8719	112.8990	-10.3188	-1.6919	92.6764	-5.5476	24.3542	18.0135	124.7703	-23.8711	-6.1363	
4.3330	-8.7673	2.5148	-9.5552	0.0000	1.2500	-0.0000	40.1720	-0.6173	-7.3977	49.0031	-12.1512	-1.9520	0.0000	81.5797	-4.2126	8.2130	105.8877	6.0181	-5.3929	-0.0000	-15.4627	-2.4262	-2.1687	85.4090	8.3602	16.9965	12.9781	112.6837	-10.2884	-1.6369	93.0085	-5.7808	23.9715	18.1096	125.2456	-23.7780	-6.0521	
4.3490	-8.8079	2.5259	-9.6450	0.0000	1.2500	-0.0000	40.8175	-0.6603	-7.4383	53.2384	-11.3734	-2.7593	0.0000	81.6557	-3.8326	7.8262	102.1366	6.6379	-6.0924	-0.0000	-15.5055	-2.3783	-2.2037	85.4080	8.2061	17.1642	13.0037	112.5737	-10.2479	-1.6096	93.2506	-5.9907	23.7255	18.0866	125.5472	-23.7049	-6.0039	
4.3660	-8.8257	2.4312	-9.6645	0.0000	1.2500	-0.0000	42.1285	-0.5498	-6.9785	58.6428	-10.3209	-3.2521	0.0000	80.7978	-3.4732	7.1305	97.5014	6.9380	-6.3011	-0.0000	-15.5181	-2.2613	-2.2142	85.4223	8.0568	17.2946	12.9113	112.6261	-10.2005	-1.6379	93.3735	-6.1491	23.6745	17.8377	125.6070	-23.6620	-6.0043	
4.3830	-8.8290	2.2635	-9.6581	0.0000	1.2500	-0.0000	44.0491	-0.2804	-6.2035	65.0335	-9.0593	-3.6335	-0.0000	79.1164	-3.1425	6.1512	92.0698	6.9296	-6.2214	-0.0000	-15.5153	-2.1018	-2.2002	85.4620	7.9152	17.4205	12.7397	112.7836	-10.1433	-1.6936	93.4058	-6.2840	23.7595	17.4721	125.4943	-23.6387	-6.0403	
4.3990	-8.7960	2.1054	-9.6425	0.0000	1.2500	-0.0000	46.3472	0.0143	-5.3452	71.5626	-8.2042	-3.9512	0.0000	76.7322	-2.8824	5.0793	86.2825	6.5410	-6.1134	-0.0000	-15.5139	-1.9688	-2.1606	85.5082	7.7664	17.5850	12.5202	112.9626	-10.0923	-1.7907	93.3748	-6.3615	23.9916	17.0828	125.2654	-23.6308	-6.1278	
